<svg width="24" height="24" viewBox="0 0 24 24" fill="none" xmlns="http://www.w3.org/2000/svg">
<path fill-rule="evenodd" clip-rule="evenodd" d="M13 3H11L9 4V5.5L7 6.5L6 6L3 8V11L4 12V13L4.5 13.5V15V18L9 21H10L11 21.5H12.5L13.5 21H15.5L16 21.5H17L19.5 19.5V18.5L19 18L20 16.5V12L21 11V8L18 6L17 6.5L15 5.5V4L13 3ZM10.6648 14.7784V14.9474H12.549V14.7784C12.5523 14.4536 12.5938 14.1802 12.6733 13.9581C12.7562 13.736 12.8804 13.5405 13.0462 13.3714C13.2152 13.2024 13.4306 13.04 13.6925 12.8842C14.004 12.6986 14.2741 12.4915 14.5028 12.2628C14.7315 12.0308 14.9089 11.7656 15.0348 11.4673C15.1641 11.1657 15.2287 10.821 15.2287 10.4332C15.2287 9.85322 15.0845 9.35772 14.7962 8.94673C14.5078 8.53575 14.1101 8.22254 13.603 8.0071C13.0959 7.78835 12.5125 7.67898 11.853 7.67898C11.2531 7.67898 10.7045 7.78669 10.2074 8.00213C9.71023 8.21425 9.31084 8.53741 9.00923 8.97159C8.70762 9.40246 8.54853 9.94934 8.53196 10.6122H10.5604C10.5703 10.3404 10.6366 10.1134 10.7592 9.93111C10.8819 9.7455 11.0393 9.6063 11.2315 9.51349C11.4238 9.41738 11.6276 9.36932 11.843 9.36932C12.0651 9.36932 12.2673 9.41572 12.4496 9.50852C12.6352 9.60133 12.7827 9.7339 12.892 9.90625C13.0014 10.0786 13.0561 10.2791 13.0561 10.5078C13.0561 10.7232 13.008 10.9188 12.9119 11.0945C12.8158 11.2668 12.6866 11.4242 12.5241 11.5668C12.3617 11.7093 12.1778 11.8468 11.9723 11.9794C11.6972 12.1518 11.4619 12.344 11.2663 12.5561C11.0708 12.7682 10.9216 13.0466 10.8189 13.3913C10.7195 13.736 10.6681 14.1984 10.6648 14.7784ZM10.799 17.7812C11.0343 18.0133 11.3177 18.1293 11.6491 18.1293C11.8613 18.1293 12.0568 18.0762 12.2358 17.9702C12.4148 17.8608 12.5589 17.7166 12.6683 17.5376C12.781 17.3554 12.839 17.1548 12.8423 16.9361C12.839 16.6113 12.718 16.3329 12.4794 16.1009C12.2408 15.8688 11.964 15.7528 11.6491 15.7528C11.3177 15.7528 11.0343 15.8688 10.799 16.1009C10.567 16.3329 10.4527 16.6113 10.456 16.9361C10.4527 17.2642 10.567 17.5459 10.799 17.7812Z" fill="#CFCFCF"/>
</svg>
