<?xml version="1.0" encoding="utf-8"?>
<!-- Generator: Adobe Illustrator 27.9.0, SVG Export Plug-In . SVG Version: 6.00 Build 0)  -->
<svg version="1.1" id="레이어_1" xmlns="http://www.w3.org/2000/svg" xmlns:xlink="http://www.w3.org/1999/xlink" x="0px"
	 y="0px" viewBox="0 0 216 60" style="enable-background:new 0 0 216 60;" xml:space="preserve">
<style type="text/css">
	.st0{fill:#EEB65B;}
	.st1{fill:#B4925F;}
	.st2{fill:#DC311A;}
	.st3{fill:#FFFFFF;}
	.st4{fill:#222222;}
</style>
<g>
	<g>
		<path class="st0" d="M50.17,12.76h-6.5c-0.66-1.63-2.21-3.1-4.91-3.1h-5.85h-0.98h-5.85c-2.7,0-4.25,1.48-4.91,3.1h-6.5
			c-1.47,0-2.66,1.16-2.66,2.59v14.36c0,14.49,19,21.02,19.81,21.29c0.2,0.07,0.4,0.1,0.6,0.1c0.2,0,0.4-0.03,0.6-0.1
			c0.81-0.27,19.81-6.8,19.81-21.29V15.35C52.83,13.92,51.63,12.76,50.17,12.76z M49.06,29.71c0,10.55-13.67,16.36-16.64,17.49
			c-2.98-1.14-16.64-6.95-16.64-17.49V16.53h6.21c1.25,0,2.35-0.87,2.6-2.08c0.15-0.73,0.58-1.02,1.5-1.02h5.85h0.98h5.85
			c0.92,0,1.34,0.29,1.5,1.02c0.26,1.21,1.35,2.08,2.6,2.08h6.21V29.71z"/>
	</g>
	<g>
		<path class="st1" d="M45.78,29.95c0,7.91-9.57,12.5-12.78,13.81c-0.38,0.16-0.78,0.16-1.16,0c-3.21-1.32-12.78-5.91-12.78-13.81
			V20.9c0-0.85,0.69-1.54,1.54-1.54l2.08,0c1.43,0,2.97-0.63,3.54-1.94c0.17-0.39,0.51-0.55,1.12-0.55h4.7h0.78h4.7
			c0.61,0,0.95,0.16,1.12,0.55c0.57,1.32,2.11,1.94,3.54,1.94l2.08,0c0.85,0,1.54,0.69,1.54,1.54V29.95z"/>
	</g>
	<g>
		<path class="st2" d="M32.55,16.87h0.52h4.6c0.6,0,0.93,0.16,1.1,0.55c0.55,1.32,2.06,1.94,3.47,1.94h2.04
			c0.83,0,1.5,0.69,1.5,1.54v9.05c0,7.91-9.38,12.5-12.53,13.81c-0.23,0.1-0.47,0.11-0.7,0.09V16.87z"/>
	</g>
	<g>
		<polyline class="st2" points="26.41,16.2 21.14,15.12 19.19,11.82 24.74,12.95 		"/>
		<path class="st2" d="M26.41,16.5c-0.02,0-0.04,0-0.06-0.01l-5.28-1.08c-0.08-0.02-0.16-0.07-0.2-0.14l-1.95-3.3
			c-0.06-0.1-0.05-0.23,0.01-0.33c0.07-0.1,0.19-0.14,0.3-0.12l5.55,1.14c0.16,0.03,0.27,0.19,0.23,0.35
			c-0.03,0.16-0.2,0.27-0.35,0.23l-4.88-1l1.54,2.6l5.14,1.05c0.16,0.03,0.27,0.19,0.23,0.35C26.68,16.4,26.55,16.5,26.41,16.5z"/>
	</g>
	<g>
		<polyline class="st2" points="26.39,16.23 28.03,11.28 26.46,7.77 24.74,12.98 		"/>
		<path class="st2" d="M26.39,16.53c-0.03,0-0.06-0.01-0.09-0.02c-0.16-0.05-0.24-0.22-0.19-0.38l1.6-4.84L26.5,8.6l-1.48,4.47
			c-0.05,0.16-0.22,0.24-0.38,0.19c-0.16-0.05-0.24-0.22-0.19-0.38l1.72-5.2c0.04-0.12,0.15-0.2,0.27-0.21
			c0.12,0.01,0.24,0.06,0.29,0.18l1.57,3.51c0.03,0.07,0.03,0.15,0.01,0.22l-1.64,4.95C26.64,16.45,26.52,16.53,26.39,16.53z"/>
	</g>
	<g>
		<polyline class="st2" points="17.94,19.97 12.63,20.87 9.63,18.49 15.21,17.55 		"/>
		<path class="st2" d="M12.63,21.17c-0.07,0-0.13-0.02-0.19-0.06l-3.01-2.38c-0.09-0.07-0.13-0.19-0.1-0.31
			c0.03-0.11,0.12-0.2,0.24-0.22l5.58-0.94c0.16-0.03,0.32,0.08,0.35,0.25c0.03,0.16-0.08,0.32-0.25,0.35l-4.92,0.83l2.37,1.88
			l5.18-0.87c0.16-0.02,0.32,0.08,0.35,0.25c0.03,0.16-0.08,0.32-0.25,0.35l-5.31,0.89C12.67,21.17,12.65,21.17,12.63,21.17z"/>
	</g>
	<g>
		<polyline class="st2" points="17.94,20.01 17.68,14.8 14.95,12.1 15.22,17.58 		"/>
		<path class="st2" d="M17.94,20.31c-0.16,0-0.29-0.12-0.3-0.29l-0.25-5.09l-2.1-2.08l0.23,4.71c0.01,0.17-0.12,0.31-0.29,0.31
			c-0.15,0-0.31-0.12-0.31-0.29l-0.27-5.48c-0.01-0.12,0.06-0.24,0.18-0.29c0.11-0.05,0.25-0.03,0.33,0.06l2.73,2.7
			c0.05,0.05,0.08,0.12,0.09,0.2L18.24,20c0.01,0.17-0.12,0.31-0.29,0.31C17.95,20.31,17.94,20.31,17.94,20.31z"/>
	</g>
	<g>
		<path class="st3" d="M51.26,15.31"/>
	</g>
	<g>
		<path class="st4" d="M34.3,26.61l-8.59-13.84c-0.25-0.45-0.82-0.62-1.28-0.37c-0.45,0.25-0.62,0.83-0.37,1.28l10.23,16.5V26.61z"
			/>
	</g>
	<g>
		<path class="st4" d="M26.77,24.38l-10.71-7.35c-0.4-0.33-0.99-0.28-1.33,0.12c-0.33,0.4-0.28,0.99,0.12,1.33l11.92,8.35V24.38z"/>
	</g>
</g>
<g>
	<path class="st3" d="M65.05,29.97c0-7.52,4.84-11.92,10.6-11.92c2.9,0,5.21,1.39,6.69,2.93l-2.37,2.9
		c-1.17-1.11-2.5-1.91-4.22-1.91c-3.45,0-6.04,2.96-6.04,7.86c0,4.96,2.34,7.95,5.95,7.95c1.97,0,3.48-0.92,4.71-2.25l2.4,2.83
		c-1.88,2.19-4.31,3.36-7.27,3.36C69.73,41.71,65.05,37.58,65.05,29.97z"/>
	<path class="st3" d="M84.3,29.79c0-7.42,4.16-11.74,10.2-11.74s10.2,4.34,10.2,11.74c0,7.39-4.16,11.92-10.2,11.92
		S84.3,37.18,84.3,29.79z M100.04,29.79c0-4.9-2.16-7.83-5.55-7.83s-5.55,2.93-5.55,7.83c0,4.87,2.16,7.98,5.55,7.98
		S100.04,34.66,100.04,29.79z"/>
	<path class="st3" d="M106.79,29.97c0-7.52,4.84-11.92,10.6-11.92c2.9,0,5.21,1.39,6.69,2.93l-2.37,2.9
		c-1.17-1.11-2.5-1.91-4.22-1.91c-3.45,0-6.04,2.96-6.04,7.86c0,4.96,2.34,7.95,5.95,7.95c1.97,0,3.48-0.92,4.71-2.25l2.4,2.83
		c-1.88,2.19-4.31,3.36-7.27,3.36C111.47,41.71,106.79,37.58,106.79,29.97z"/>
	<path class="st3" d="M134.54,18.45h4.56v22.83h-4.56V18.45z"/>
	<path class="st3" d="M144.71,18.45h4.65l6.62,12.17l2.28,4.93h0.15c-0.22-2.37-0.59-5.39-0.59-7.98v-9.12h4.31v22.83h-4.62
		l-6.59-12.2l-2.31-4.9h-0.15c0.22,2.46,0.55,5.33,0.55,7.95v9.15h-4.31V18.45z"/>
	<path class="st3" d="M167.78,18.45h14.05v3.82h-9.49v5.95h8.1v3.82h-8.1v9.24h-4.56V18.45z"/>
	<path class="st3" d="M183.7,29.79c0-7.42,4.16-11.74,10.2-11.74s10.2,4.34,10.2,11.74c0,7.39-4.16,11.92-10.2,11.92
		S183.7,37.18,183.7,29.79z M199.44,29.79c0-4.9-2.16-7.83-5.55-7.83s-5.55,2.93-5.55,7.83c0,4.87,2.16,7.98,5.55,7.98
		S199.44,34.66,199.44,29.79z"/>
</g>
</svg>
