<svg width="24" height="24" viewBox="0 0 24 24" fill="none" xmlns="http://www.w3.org/2000/svg">
<path fill-rule="evenodd" clip-rule="evenodd" d="M16.0067 4L13.9114 4.20945L13.2725 5.20507L14.7287 5.99124L15.6401 5.58955L16.0067 4ZM2 7.33454C2 6.78225 2.44772 6.33454 3 6.33454H3.99997L4.99997 7.79871L9.49997 8.77482L9.99996 10.239H3C2.44771 10.239 2 9.79127 2 9.23899V7.33454ZM10.5 11.2152H9.00002C8.44774 11.2152 8.00002 11.6629 8.00002 12.2152V14.1196C8.00002 14.6719 8.44774 15.1196 9.00002 15.1196H14.5L14.5 15.1195V14.6315L13 13.6554L11 13.1673L11.5 12.1912L10.5 11.2152ZM15.9999 16.0956H14C13.4477 16.0956 13 16.5434 13 17.0956V19.0001C13 19.5524 13.4477 20.0001 14 20.0001H16L16.5 19.5121L16 18.0479L17 16.5837L15.9999 16.0957L15.9999 16.0956ZM22 19.0094L22 19.0001V17.0956L22 17.0864V19.0094ZM3 11.2151C2.44772 11.2151 2 11.6628 2 12.2151V14.1195C2 14.6718 2.44771 15.1195 3 15.1195H6C6.55228 15.1195 7 14.6718 7 14.1195V12.2151C7 11.6628 6.55228 11.2151 6 11.2151H3ZM3 16.0957C2.44772 16.0957 2 16.5434 2 17.0957V19.0001C2 19.5524 2.44771 20.0001 3 20.0001H11C11.5523 20.0001 12 19.5524 12 19.0001V17.0957C12 16.5434 11.5523 16.0957 11 16.0957H3ZM17 12.1911L16 13.4926L17 14.1433L19 13.4926V12.8418L17 12.1911ZM18.2776 8.05522L21.1167 8.24644L20.4069 10.4907L19.1293 10.8631L17.2839 9.36353L18.2776 8.05522ZM7.74998 4.38215L8.49998 5.84631L9.99998 6.5784L8.49998 7.31048L6.99998 5.84631L7.74998 4.38215ZM20.1275 15.9779L18.8852 16.1564L18.8154 17.9496L21.4012 18.05L21.7121 16.9285L20.1275 15.9779ZM13.1252 7.40939L13.8037 8.02457L14.0921 9.72443L13.395 10.4067L12.2138 8.7597L13.1252 7.40939Z" fill="#D9D9D9"/>
</svg>
