<svg width="24" height="24" viewBox="0 0 24 24" fill="none" xmlns="http://www.w3.org/2000/svg">
<path fill-rule="evenodd" clip-rule="evenodd" d="M19.2465 8.60617L17.8211 8.96429H15.3333L13.5564 9.32143L12.3125 10.75L12.8456 12.3571H14.8002L16.0441 12.8929L16.5772 15.0357L17.6434 17.3571L17.8115 17.4979C16.3533 19.0387 14.2889 20 12 20C7.58172 20 4 16.4183 4 12C4 11.4687 4.05179 10.9495 4.15061 10.4471L4.32143 10.6198L4.49442 11.8438L5.87835 12.5432L5.70536 13.5923L7.26228 14.8162L7.78125 16.0402L9.16518 19.1875L10.0301 14.9911L10.8951 13.5923L9.68415 13.0677L8.99219 12.3683L7.60826 12.0186H6.79619L6.05134 12.1935L5.18638 11.8438L5.53237 10.4449H7.08929L9.68415 7.82217L11.4141 7.12277V6.24851L12.625 5.37426L10.8951 5.02455L9.68415 5.37426L8.12723 5.1994L7.94385 5.10304C9.13314 4.4021 10.5196 4 12 4C15.205 4 17.9697 5.88466 19.2465 8.60617ZM12 22C17.5228 22 22 17.5228 22 12C22 6.47715 17.5228 2 12 2C6.47715 2 2 6.47715 2 12C2 17.5228 6.47715 22 12 22Z" fill="#CFCFCF"/>
</svg>
