<svg width="24" height="24" viewBox="0 0 24 24" fill="none" xmlns="http://www.w3.org/2000/svg">
<path fill-rule="evenodd" clip-rule="evenodd" d="M13.1244 9.90387C13.4062 9.9668 13.6992 10 14 10C16.2092 10 18 8.20914 18 6C18 3.79086 16.2092 2 14 2C13.6992 2 13.4062 2.0332 13.1244 2.09613C14.2678 3.01245 15 4.42072 15 6C15 7.57928 14.2678 8.98755 13.1244 9.90387ZM19 22H22V20C22 15.6249 18.4879 12.07 14.1292 12.001C17.0225 13.4976 19 16.5179 19 20V22Z" fill="#CFCFCF"/>
<path fill-rule="evenodd" clip-rule="evenodd" d="M10 10C12.2091 10 14 8.20914 14 6C14 3.79086 12.2091 2 10 2C7.79086 2 6 3.79086 6 6C6 8.20914 7.79086 10 10 10ZM10 12C5.58172 12 2 15.5817 2 20V22H18V20C18 15.5817 14.4183 12 10 12Z" fill="#CFCFCF"/>
</svg>
