<svg width="24" height="24" viewBox="0 0 24 24" fill="none" xmlns="http://www.w3.org/2000/svg">
<path d="M12 3.01744L11.5645 3.26315L11.5649 3.26381C11.5648 3.26359 11.5647 3.26337 11.5645 3.26315L12 3.01744ZM12 3.01744L12.4355 3.26315L12.4351 3.26381C12.4352 3.26359 12.4353 3.26337 12.4355 3.26315L12 3.01744ZM12 4.03487L14.354 8.20673C14.5682 8.58628 14.9369 8.85391 15.3641 8.94002L20.0617 9.8868L16.8193 13.4098C16.5238 13.7309 16.3828 14.1646 16.433 14.598L16.9831 19.3531L12.6237 17.3601L12.2234 18.2357L12.6237 17.3601C12.2276 17.179 11.7724 17.179 11.3763 17.3601L11.7921 18.2696L11.3763 17.3601L7.01688 19.3531L7.56705 14.598C7.61719 14.1646 7.47615 13.7309 7.1807 13.4098L3.93834 9.8868L8.63594 8.94002C9.06315 8.85391 9.43179 8.58628 9.64595 8.20673L12 4.03487ZM20.6629 9.23348L20.6622 9.23423L20.6629 9.23348Z" stroke="#CFCFCF" stroke-width="2"/>
</svg>
