<svg width="24" height="24" viewBox="0 0 24 24" fill="none" xmlns="http://www.w3.org/2000/svg">
<path d="M11.5645 2.77172C11.7559 2.43268 12.2441 2.43268 12.4355 2.77172L15.225 7.7153C15.2964 7.84181 15.4192 7.93103 15.5616 7.95973L21.1296 9.08193C21.5116 9.15892 21.6626 9.62394 21.3987 9.91067L17.5551 14.087C17.4566 14.194 17.4096 14.3386 17.4263 14.4831L18.0784 20.1191C18.1232 20.506 17.728 20.7932 17.3738 20.6313L12.2079 18.2696C12.0759 18.2092 11.9241 18.2092 11.7921 18.2696L6.62616 20.6313C6.27197 20.7932 5.87682 20.506 5.92158 20.1191L6.57367 14.4831C6.59039 14.3386 6.54338 14.194 6.44489 14.087L2.60127 9.91067C2.33738 9.62394 2.48838 9.15892 2.87038 9.08193L8.43837 7.95973C8.58077 7.93103 8.70365 7.84181 8.77504 7.7153L11.5645 2.77172Z" fill="#6C662C"/>
</svg>
