<svg width="24" height="24" viewBox="0 0 24 24" fill="none" xmlns="http://www.w3.org/2000/svg">
<path fill-rule="evenodd" clip-rule="evenodd" d="M20 12C20 16.4183 16.4183 20 12 20C10.3716 20 8.85687 19.5135 7.59318 18.6779L17.9248 6.62433C19.2142 8.04465 20 9.93056 20 12ZM6.07521 17.3757L16.4068 5.32212C15.1431 4.48652 13.6284 4 12 4C7.58172 4 4 7.58172 4 12C4 14.0694 4.78576 15.9554 6.07521 17.3757ZM22 12C22 17.5228 17.5228 22 12 22C6.47715 22 2 17.5228 2 12C2 6.47715 6.47715 2 12 2C17.5228 2 22 6.47715 22 12Z" fill="#E32929"/>
</svg>
