<svg width="24" height="24" viewBox="0 0 24 24" fill="none" xmlns="http://www.w3.org/2000/svg">
<path fill-rule="evenodd" clip-rule="evenodd" d="M22 12C22 17.5228 17.5228 22 12 22C6.47715 22 2 17.5228 2 12C2 6.47715 6.47715 2 12 2C17.5228 2 22 6.47715 22 12ZM3.93555 16C5.40825 13.0366 8.46631 11 12 11C15.5337 11 18.5918 13.0366 20.0645 16C18.5918 18.9634 15.5337 21 12 21C8.46631 21 5.40825 18.9634 3.93555 16ZM12 9C13.6569 9 15 7.65685 15 6C15 4.34315 13.6569 3 12 3C10.3431 3 9 4.34315 9 6C9 7.65685 10.3431 9 12 9Z" fill="#CFCFCF"/>
</svg>
