<svg width="24" height="24" viewBox="0 0 24 24" fill="none" xmlns="http://www.w3.org/2000/svg">
<circle cx="12" cy="7" r="3" fill="#E32929"/>
<circle cx="7.75" cy="16" r="3.75" fill="#E32929"/>
<path d="M16.5625 7L16 4.25L17.5 2L19 4.25L18.4374 7V20H16.5625V7Z" fill="#E32929"/>
<path fill-rule="evenodd" clip-rule="evenodd" d="M16 11.2675C15.7058 11.0974 15.3643 11 15 11H9C8.22927 11 7.56036 11.436 7.22643 12.0747C7.47671 12.0257 7.73536 12 8 12C10.2091 12 12 13.7909 12 16C12 18.2091 10.2091 20 8 20C7.6547 20 7.31962 19.9562 7 19.874V20H8H16V11.2675ZM17 20H17V13C17 12.9953 17 12.9906 17 12.9859V20Z" fill="#E32929"/>
</svg>
